<svg
                      xmlns="http://www.w3.org/2000/svg"
                      version="1.1"
                      xmlns:xlink="http://www.w3.org/1999/xlink"
                      width="24"
                      height="24"
                      x="0"
                      y="0"
                      viewBox="0 0 512 512.128"
                      style="enable-background:new 0 0 512 512"
                      xml:space="preserve"
                    >
                      <g>
                        <path
                          d="M114.059 141.484h27.62a7.148 7.148 0 0 0 4.665-1.37V115.62c0-6.016-8.852-12.738-21.543-12.738-10.055 0-13.942 3.566-15.031 6.558V129.5c-.075.727-.204 1.45-.383 2.156v9.145c0-.074.074-.102.172-.102 1.464.442 2.972.707 4.5.785zM219.484 145.71c.95.435 1.973.677 3.016.712h30.484c1.16.098 2.301-.313 3.137-1.125v-3.828c0-.23-.082-.442-.082-.668V111.25c.016-1.766-.723-10.55-15.223-10.55-11.558 0-21.332 7.085-21.332 15.468v3.66c0 .07.047.137.047.219s-.047.125-.047.2zM201.2 116.168c0-8.383-9.774-15.469-21.333-15.469-14.5 0-15.238 8.785-15.238 10.551v34.46a7.877 7.877 0 0 0 3.016.712h30.484a4.022 4.022 0 0 0 3.07-1.059v-24.898c0-.153-.09-.281-.09-.438s.082-.293.09-.449zM179.867 82.414a42.28 42.28 0 0 1 30.477 12.453 42.265 42.265 0 0 1 30.472-12.453 33.883 33.883 0 0 1 26.805 11.152 45.925 45.925 0 0 1 27.613-8.914c-1.164-.593-2.277-1.297-3.457-1.828l-.293-.144a186.994 186.994 0 0 0-162.293 0l-.285.144c-1.18.559-2.293 1.262-3.457 1.828a45.925 45.925 0 0 1 27.614 8.914 33.883 33.883 0 0 1 26.804-11.152zM329.582 128.941a7.037 7.037 0 0 0 4.281 1.2h14.977a140.338 140.338 0 0 0-15.754-19.575l-.54-.543c-.987-.914-2.23-1.882-3.347-2.812v.363a23.45 23.45 0 0 1 .383 3.656zM274.344 115.621v25.168c0-.07.07-.098.164-.098 1.46.446 2.972.711 4.496.793h27.621a6.835 6.835 0 0 0 4.875-1.543l-.047-6.464a14.88 14.88 0 0 1-.539-3.977v-20.059c-1.09-2.992-5-6.558-15.031-6.558-12.692 0-21.54 6.722-21.54 12.738zM130.945 301.375a77.76 77.76 0 0 0-26.515 15.652 134.144 134.144 0 0 0-31.25 44.133 168.52 168.52 0 0 0 128.02 77.395v-27c0-8.63-18.13-9.14-18.286-9.14a9.144 9.144 0 0 1-9.144-9.145c0-5.047 4.093-9.141 9.144-9.141a52.888 52.888 0 0 1 18.285 3.418v-73.14c-7.652-7.821-30.746-26.177-70.254-13.032zm0 0"
                          fill="#000000"
                          opacity="1"
                          data-original="#000000"
                          className=""
                        ></path>
                        <path
                          d="M279.004 159.77a27.161 27.161 0 0 1-9.82-1.829 22.34 22.34 0 0 1-16.172 6.758h-30.48a22.99 22.99 0 0 1-12.188-3.445 23 23 0 0 1-12.188 3.445h-30.484a22.345 22.345 0 0 1-16.172-6.746 27.328 27.328 0 0 1-9.82 1.828h-27.621a22.941 22.941 0 0 1-21.36-12.031c-1.93.438-3.898.668-5.879.684H61.312a230.543 230.543 0 0 0-15.68 142.629 195.787 195.787 0 0 0 16.641 51.09 146.924 146.924 0 0 1 26.395-35.364 112.345 112.345 0 0 1 32.914-93.695 78.33 78.33 0 0 1 43.383-24.34 38.406 38.406 0 0 1 32.762 9.848 25.3 25.3 0 0 1 .785 36.57 19.074 19.074 0 0 0-5.742 20.445 17.55 17.55 0 0 0 17.515 9.653h.059a17.577 17.577 0 0 0 17.562-9.665 19.075 19.075 0 0 0-5.742-20.44 25.3 25.3 0 0 1 .785-36.571 38.394 38.394 0 0 1 32.758-9.848 78.322 78.322 0 0 1 43.383 24.336 112.344 112.344 0 0 1 32.918 93.7 146.709 146.709 0 0 1 26.449 35.382 195.868 195.868 0 0 0 16.64-51.102A231.01 231.01 0 0 0 359.5 148.434h-25.602a27.487 27.487 0 0 1-5.87-.684 22.96 22.96 0 0 1-21.368 12.031zM91.102 129.043V111.25c.03-1.227.16-2.45.382-3.656v-.356c-1.187 1.004-2.468 2.028-3.546 3.016a142.81 142.81 0 0 0-16.02 19.887H86.82a7.57 7.57 0 0 0 4.282-1.098zm0 0"
                          fill="#000000"
                          opacity="1"
                          data-original="#000000"
                          className=""
                        ></path>
                        <path
                          d="M215.18 15.203a9.138 9.138 0 0 1-9.676 0A116.54 116.54 0 0 0 148.91 0a103.941 103.941 0 0 0-75.152 32.914c-87.672 87.469-89.309 247.98-45.613 361.336 44.843 116.371 180.468 117.879 182.199 117.879 1.535 0 137.426-1.703 182.195-117.844 43.695-113.37 42.059-273.863-45.613-361.336-60.89-60.77-131.051-18.191-131.746-17.746zm84.625 51.203a178.713 178.713 0 0 1 26.824 16.008c.219.129.484.191.695.34 1.227.86 2.23 1.672 3.383 2.512.176.136.395.183.566.34.043.054.082.113.122.171a169.911 169.911 0 0 1 13.714 11.047l.137.137.152.144.149.149.383.39a164.64 164.64 0 0 1 26.515 36.454l.102.175c23.625 43.59 31.277 100.422 20.422 160.11C373.625 401.18 286.484 457.18 210.44 457.27h-.218c-76.114-.145-163.172-56.137-182.59-162.926-14.246-78.297 3.281-151.77 46.883-196.57l.199-.2c.094-.101.64-.64.687-.68a178.463 178.463 0 0 1 17.91-14.187c.231-.156.497-.23.743-.367a178.048 178.048 0 0 1 26.777-15.973l.277-.137a205.352 205.352 0 0 1 178.375 0zm0 0"
                          fill="#000000"
                          opacity="1"
                          data-original="#000000"
                          className=""
                        ></path>
                        <path
                          d="M289.719 301.367c-39.625-13.195-62.719 5.32-70.235 13.067v27.425a52.916 52.916 0 0 1 18.286-3.445c5.05 0 9.144 4.094 9.144 9.14a9.144 9.144 0 0 1-9.144 9.145c-.348 0-18.286.547-18.286 9.145v72.71a168.446 168.446 0 0 0 128.063-77.394 134.03 134.03 0 0 0-31.25-44.133 77.789 77.789 0 0 0-26.578-15.66zm0 0"
                          fill="#000000"
                          opacity="1"
                          data-original="#000000"
                          className=""
                        ></path>
                        <path
                          d="M295.516 284.023a91.408 91.408 0 0 1 19.062 9.141 92.674 92.674 0 0 0-28.414-67.105 59.01 59.01 0 0 0-32.851-19.176 20.522 20.522 0 0 0-17.434 4.644 7.226 7.226 0 0 0-.79 10.707 36.925 36.925 0 0 1 9.72 40.34 35.402 35.402 0 0 1-34.348 20.98h-.211a35.413 35.413 0 0 1-34.375-21.027 36.918 36.918 0 0 1 9.719-40.336 7.246 7.246 0 0 0 1.988-5.53 7.218 7.218 0 0 0-2.777-5.177 20.55 20.55 0 0 0-17.434-4.644 58.977 58.977 0 0 0-32.851 19.137 92.674 92.674 0 0 0-28.415 67.105 91.772 91.772 0 0 1 19.043-9.098c43.934-14.625 72.395 2.746 85.204 13.946 12.855-11.227 41.296-28.5 85.164-13.907zm0 0"
                          fill="#000000"
                          opacity="1"
                          data-original="#000000"
                          className=""
                        ></path>
                      </g>
                    </svg>